<svg width="161" height="29" viewBox="0 0 161 29" fill="none" xmlns="http://www.w3.org/2000/svg">
<path d="M16.3069 13.808C16.3069 15.4293 15.9549 16.8907 15.2509 18.192C14.5469 19.472 13.5869 20.4853 12.3709 21.232C11.1549 21.9573 9.76821 22.32 8.21088 22.32C6.69621 22.32 5.32021 21.9573 4.08288 21.232C2.86688 20.4853 1.89621 19.472 1.17088 18.192C0.466875 16.8907 0.114875 15.4293 0.114875 13.808C0.114875 12.1653 0.466875 10.704 1.17088 9.424C1.89621 8.144 2.86688 7.13067 4.08288 6.384C5.32021 5.63733 6.69621 5.264 8.21088 5.264C9.76821 5.264 11.1549 5.63733 12.3709 6.384C13.5869 7.13067 14.5469 8.144 15.2509 9.424C15.9549 10.704 16.3069 12.1653 16.3069 13.808ZM14.3869 13.808C14.3869 12.5067 14.1202 11.3547 13.5869 10.352C13.0535 9.328 12.3175 8.528 11.3789 7.952C10.4615 7.35467 9.40554 7.056 8.21088 7.056C7.05888 7.056 6.01354 7.35467 5.07488 7.952C4.13621 8.528 3.38954 9.328 2.83488 10.352C2.30154 11.3547 2.03488 12.5067 2.03488 13.808C2.03488 15.1093 2.30154 16.2613 2.83488 17.264C3.38954 18.2667 4.13621 19.0667 5.07488 19.664C6.01354 20.24 7.05888 20.528 8.21088 20.528C9.40554 20.528 10.4615 20.24 11.3789 19.664C12.3175 19.0667 13.0535 18.2667 13.5869 17.264C14.1202 16.2613 14.3869 15.1093 14.3869 13.808ZM27.7474 5.52C29.07 5.52 30.2007 5.872 31.1394 6.576C32.078 7.25867 32.718 8.28267 33.0594 9.648L32.6114 9.776L32.8034 9.2C33.0807 8.56 33.5394 7.96267 34.1794 7.408C34.8407 6.832 35.5874 6.37333 36.4194 6.032C37.2514 5.69067 38.094 5.52 38.9474 5.52C40.2914 5.52 41.3687 5.808 42.1794 6.384C43.0114 6.96 43.6087 7.73867 43.9714 8.72C44.3554 9.68 44.5474 10.768 44.5474 11.984V21.04C44.5474 21.296 44.4514 21.52 44.2594 21.712C44.0887 21.904 43.8647 22 43.5874 22C43.31 22 43.0754 21.904 42.8834 21.712C42.7127 21.52 42.6274 21.296 42.6274 21.04V12.08C42.6274 11.2053 42.4887 10.4053 42.2114 9.68C41.934 8.95467 41.4967 8.37867 40.8994 7.952C40.302 7.52533 39.502 7.312 38.4994 7.312C37.6247 7.312 36.782 7.52533 35.9714 7.952C35.182 8.37867 34.5314 8.95467 34.0194 9.68C33.5287 10.4053 33.2834 11.2053 33.2834 12.08V21.04C33.2834 21.296 33.1874 21.52 32.9954 21.712C32.8247 21.904 32.6007 22 32.3234 22C32.046 22 31.8114 21.904 31.6194 21.712C31.4487 21.52 31.3634 21.296 31.3634 21.04V11.984C31.3634 11.1093 31.2354 10.32 30.9794 9.616C30.7234 8.912 30.3074 8.35733 29.7314 7.952C29.1554 7.52533 28.3767 7.312 27.3954 7.312C26.5207 7.312 25.6887 7.52533 24.8994 7.952C24.1314 8.35733 23.502 8.912 23.0114 9.616C22.542 10.32 22.3074 11.1093 22.3074 11.984V21.04C22.3074 21.296 22.2114 21.52 22.0194 21.712C21.8274 21.904 21.6034 22 21.3474 22C21.0487 22 20.814 21.904 20.6434 21.712C20.4727 21.52 20.3874 21.296 20.3874 21.04V6.704C20.3874 6.448 20.4727 6.224 20.6434 6.032C20.8354 5.84 21.07 5.744 21.3474 5.744C21.6247 5.744 21.8487 5.84 22.0194 6.032C22.2114 6.224 22.3074 6.448 22.3074 6.704V9.68L21.4434 10.864C21.5074 10.224 21.71 9.584 22.0514 8.944C22.414 8.304 22.8834 7.728 23.4594 7.216C24.0354 6.704 24.686 6.29867 25.4114 6C26.158 5.68 26.9367 5.52 27.7474 5.52ZM62.9829 5.648C63.2602 5.648 63.4842 5.744 63.6549 5.936C63.8469 6.128 63.9429 6.36267 63.9429 6.64V21.04C63.9429 21.296 63.8469 21.52 63.6549 21.712C63.4629 21.904 63.2389 22 62.9829 22C62.7055 22 62.4709 21.904 62.2789 21.712C62.1082 21.52 62.0229 21.296 62.0229 21.04V17.232L62.5669 16.976C62.5669 17.5733 62.3962 18.1813 62.0549 18.8C61.7349 19.4187 61.2869 19.9947 60.7109 20.528C60.1349 21.0613 59.4522 21.4987 58.6629 21.84C57.8949 22.16 57.0629 22.32 56.1669 22.32C54.7162 22.32 53.4149 21.9467 52.2629 21.2C51.1322 20.4533 50.2362 19.4293 49.5749 18.128C48.9349 16.8267 48.6149 15.3653 48.6149 13.744C48.6149 12.08 48.9455 10.6187 49.6069 9.36C50.2682 8.08 51.1642 7.07733 52.2949 6.352C53.4255 5.62667 54.7055 5.264 56.1349 5.264C57.0522 5.264 57.9055 5.424 58.6949 5.744C59.5055 6.064 60.2095 6.50133 60.8069 7.056C61.4042 7.61067 61.8629 8.25067 62.1829 8.976C62.5242 9.68 62.6949 10.416 62.6949 11.184L62.0229 10.704V6.64C62.0229 6.36267 62.1082 6.128 62.2789 5.936C62.4709 5.744 62.7055 5.648 62.9829 5.648ZM56.3269 20.528C57.4575 20.528 58.4602 20.24 59.3349 19.664C60.2095 19.0667 60.8922 18.256 61.3829 17.232C61.8949 16.1867 62.1509 15.024 62.1509 13.744C62.1509 12.4853 61.8949 11.3547 61.3829 10.352C60.8922 9.34933 60.2095 8.54933 59.3349 7.952C58.4602 7.35467 57.4575 7.056 56.3269 7.056C55.2175 7.056 54.2149 7.344 53.3189 7.92C52.4442 8.496 51.7509 9.28533 51.2389 10.288C50.7482 11.2907 50.5029 12.4427 50.5029 13.744C50.5029 15.024 50.7482 16.1867 51.2389 17.232C51.7509 18.256 52.4442 19.0667 53.3189 19.664C54.1935 20.24 55.1962 20.528 56.3269 20.528ZM69.9411 22C69.6425 22 69.4078 21.904 69.2371 21.712C69.0665 21.52 68.9811 21.296 68.9811 21.04V6.704C68.9811 6.448 69.0665 6.224 69.2371 6.032C69.4291 5.84 69.6638 5.744 69.9411 5.744C70.2185 5.744 70.4425 5.84 70.6131 6.032C70.8051 6.224 70.9011 6.448 70.9011 6.704V11.504L70.4211 11.6C70.4851 10.8533 70.6665 10.1173 70.9651 9.392C71.2851 8.64533 71.7118 7.96267 72.2451 7.344C72.7785 6.72533 73.4078 6.224 74.1331 5.84C74.8798 5.456 75.7118 5.264 76.6291 5.264C77.0131 5.264 77.3865 5.34933 77.7491 5.52C78.1118 5.66933 78.2931 5.92533 78.2931 6.288C78.2931 6.608 78.2078 6.85333 78.0371 7.024C77.8665 7.19467 77.6638 7.28 77.4291 7.28C77.2371 7.28 77.0238 7.22667 76.7891 7.12C76.5758 7.01333 76.2878 6.96 75.9251 6.96C75.3278 6.96 74.7305 7.14133 74.1331 7.504C73.5358 7.84533 72.9918 8.31467 72.5011 8.912C72.0105 9.50933 71.6158 10.1813 71.3171 10.928C71.0398 11.6533 70.9011 12.3893 70.9011 13.136V21.04C70.9011 21.296 70.8051 21.52 70.6131 21.712C70.4211 21.904 70.1971 22 69.9411 22ZM91.0036 22C90.705 22 90.4703 21.904 90.2996 21.712C90.129 21.52 90.0436 21.296 90.0436 21.04V6.704C90.0436 6.448 90.129 6.224 90.2996 6.032C90.4916 5.84 90.7263 5.744 91.0036 5.744C91.281 5.744 91.505 5.84 91.6756 6.032C91.8676 6.224 91.9636 6.448 91.9636 6.704V11.504L91.4836 11.6C91.5476 10.8533 91.729 10.1173 92.0276 9.392C92.3476 8.64533 92.7743 7.96267 93.3076 7.344C93.841 6.72533 94.4703 6.224 95.1956 5.84C95.9423 5.456 96.7743 5.264 97.6916 5.264C98.0756 5.264 98.449 5.34933 98.8116 5.52C99.1743 5.66933 99.3556 5.92533 99.3556 6.288C99.3556 6.608 99.2703 6.85333 99.0996 7.024C98.929 7.19467 98.7263 7.28 98.4916 7.28C98.2996 7.28 98.0863 7.22667 97.8516 7.12C97.6383 7.01333 97.3503 6.96 96.9876 6.96C96.3903 6.96 95.793 7.14133 95.1956 7.504C94.5983 7.84533 94.0543 8.31467 93.5636 8.912C93.073 9.50933 92.6783 10.1813 92.3796 10.928C92.1023 11.6533 91.9636 12.3893 91.9636 13.136V21.04C91.9636 21.296 91.8676 21.52 91.6756 21.712C91.4836 21.904 91.2596 22 91.0036 22ZM116.869 13.808C116.869 15.4293 116.517 16.8907 115.813 18.192C115.109 19.472 114.149 20.4853 112.933 21.232C111.717 21.9573 110.331 22.32 108.773 22.32C107.259 22.32 105.883 21.9573 104.645 21.232C103.429 20.4853 102.459 19.472 101.733 18.192C101.029 16.8907 100.677 15.4293 100.677 13.808C100.677 12.1653 101.029 10.704 101.733 9.424C102.459 8.144 103.429 7.13067 104.645 6.384C105.883 5.63733 107.259 5.264 108.773 5.264C110.331 5.264 111.717 5.63733 112.933 6.384C114.149 7.13067 115.109 8.144 115.813 9.424C116.517 10.704 116.869 12.1653 116.869 13.808ZM114.949 13.808C114.949 12.5067 114.683 11.3547 114.149 10.352C113.616 9.328 112.88 8.528 111.941 7.952C111.024 7.35467 109.968 7.056 108.773 7.056C107.621 7.056 106.576 7.35467 105.637 7.952C104.699 8.528 103.952 9.328 103.397 10.352C102.864 11.3547 102.597 12.5067 102.597 13.808C102.597 15.1093 102.864 16.2613 103.397 17.264C103.952 18.2667 104.699 19.0667 105.637 19.664C106.576 20.24 107.621 20.528 108.773 20.528C109.968 20.528 111.024 20.24 111.941 19.664C112.88 19.0667 113.616 18.2667 114.149 17.264C114.683 16.2613 114.949 15.1093 114.949 13.808ZM123.286 23.472C123.286 24.496 123.041 25.36 122.55 26.064C122.081 26.7893 121.494 27.344 120.79 27.728C120.086 28.112 119.382 28.304 118.678 28.304C118.401 28.304 118.187 28.2187 118.038 28.048C117.867 27.8773 117.782 27.6747 117.782 27.44V27.312C117.782 27.056 117.867 26.8533 118.038 26.704C118.209 26.5547 118.401 26.4587 118.614 26.416C119.105 26.3093 119.553 26.128 119.958 25.872C120.385 25.616 120.726 25.264 120.982 24.816C121.238 24.368 121.366 23.824 121.366 23.184V6.672C121.366 6.416 121.451 6.192 121.622 6C121.814 5.808 122.049 5.712 122.326 5.712C122.603 5.712 122.827 5.808 122.998 6C123.19 6.192 123.286 6.416 123.286 6.672V23.472ZM122.326 3.184C121.878 3.184 121.537 3.088 121.302 2.896C121.089 2.68267 120.982 2.384 120.982 2V1.68C120.982 1.296 121.099 1.008 121.334 0.815998C121.59 0.602665 121.931 0.495998 122.358 0.495998C122.763 0.495998 123.073 0.602665 123.286 0.815998C123.521 1.008 123.638 1.296 123.638 1.68V2C123.638 2.384 123.521 2.68267 123.286 2.896C123.073 3.088 122.753 3.184 122.326 3.184ZM142.983 5.648C143.26 5.648 143.484 5.744 143.655 5.936C143.847 6.128 143.943 6.36267 143.943 6.64V21.04C143.943 21.296 143.847 21.52 143.655 21.712C143.463 21.904 143.239 22 142.983 22C142.706 22 142.471 21.904 142.279 21.712C142.108 21.52 142.023 21.296 142.023 21.04V17.232L142.567 16.976C142.567 17.5733 142.396 18.1813 142.055 18.8C141.735 19.4187 141.287 19.9947 140.711 20.528C140.135 21.0613 139.452 21.4987 138.663 21.84C137.895 22.16 137.063 22.32 136.167 22.32C134.716 22.32 133.415 21.9467 132.263 21.2C131.132 20.4533 130.236 19.4293 129.575 18.128C128.935 16.8267 128.615 15.3653 128.615 13.744C128.615 12.08 128.946 10.6187 129.607 9.36C130.268 8.08 131.164 7.07733 132.295 6.352C133.426 5.62667 134.706 5.264 136.135 5.264C137.052 5.264 137.906 5.424 138.695 5.744C139.506 6.064 140.21 6.50133 140.807 7.056C141.404 7.61067 141.863 8.25067 142.183 8.976C142.524 9.68 142.695 10.416 142.695 11.184L142.023 10.704V6.64C142.023 6.36267 142.108 6.128 142.279 5.936C142.471 5.744 142.706 5.648 142.983 5.648ZM136.327 20.528C137.458 20.528 138.46 20.24 139.335 19.664C140.21 19.0667 140.892 18.256 141.383 17.232C141.895 16.1867 142.151 15.024 142.151 13.744C142.151 12.4853 141.895 11.3547 141.383 10.352C140.892 9.34933 140.21 8.54933 139.335 7.952C138.46 7.35467 137.458 7.056 136.327 7.056C135.218 7.056 134.215 7.344 133.319 7.92C132.444 8.496 131.751 9.28533 131.239 10.288C130.748 11.2907 130.503 12.4427 130.503 13.744C130.503 15.024 130.748 16.1867 131.239 17.232C131.751 18.256 132.444 19.0667 133.319 19.664C134.194 20.24 135.196 20.528 136.327 20.528ZM148.053 19.408C147.882 19.152 147.797 18.9067 147.797 18.672C147.818 18.416 147.957 18.2133 148.213 18.064C148.384 17.9147 148.576 17.8507 148.789 17.872C149.024 17.8933 149.237 18 149.429 18.192C150.005 18.9387 150.698 19.5467 151.509 20.016C152.341 20.464 153.322 20.688 154.453 20.688C155.05 20.688 155.637 20.592 156.213 20.4C156.81 20.1867 157.301 19.8773 157.685 19.472C158.069 19.0453 158.261 18.512 158.261 17.872C158.261 17.2107 158.069 16.6773 157.685 16.272C157.301 15.8667 156.8 15.5467 156.181 15.312C155.584 15.0773 154.944 14.8747 154.261 14.704C153.536 14.512 152.832 14.2987 152.149 14.064C151.466 13.808 150.858 13.4987 150.325 13.136C149.813 12.752 149.397 12.2933 149.077 11.76C148.757 11.2267 148.597 10.576 148.597 9.808C148.597 8.912 148.842 8.12267 149.333 7.44C149.824 6.75733 150.485 6.224 151.317 5.84C152.17 5.456 153.13 5.264 154.197 5.264C154.73 5.264 155.306 5.33867 155.925 5.488C156.544 5.616 157.152 5.84 157.749 6.16C158.346 6.48 158.88 6.91733 159.349 7.472C159.541 7.664 159.637 7.888 159.637 8.144C159.637 8.37867 159.53 8.592 159.317 8.784C159.146 8.912 158.944 8.976 158.709 8.976C158.496 8.976 158.314 8.89067 158.165 8.72C157.653 8.144 157.045 7.70667 156.341 7.408C155.637 7.10933 154.88 6.96 154.069 6.96C153.45 6.96 152.864 7.06667 152.309 7.28C151.776 7.472 151.328 7.77067 150.965 8.176C150.602 8.58133 150.421 9.11467 150.421 9.776C150.464 10.3947 150.677 10.896 151.061 11.28C151.466 11.664 151.989 11.984 152.629 12.24C153.29 12.496 154.026 12.7307 154.837 12.944C155.52 13.1147 156.17 13.3173 156.789 13.552C157.429 13.7867 157.984 14.0853 158.453 14.448C158.944 14.7893 159.328 15.2267 159.605 15.76C159.904 16.2933 160.053 16.9653 160.053 17.776C160.053 18.7147 159.786 19.5253 159.253 20.208C158.741 20.8907 158.048 21.4133 157.173 21.776C156.298 22.1387 155.328 22.32 154.261 22.32C153.109 22.32 151.989 22.096 150.901 21.648C149.834 21.2 148.885 20.4533 148.053 19.408Z" fill="black"/>
</svg>
